<svg width="48" height="48" viewBox="0 0 48 48" fill="none" xmlns="http://www.w3.org/2000/svg">
<path d="M41.7186 16.7397L27.8586 5.6597C25.7186 3.9397 22.2586 3.9397 20.1386 5.6397L6.27858 16.7397C4.71858 17.9797 3.71858 20.5997 4.05858 22.5597L6.71858 38.4797C7.19858 41.3197 9.91858 43.6197 12.7986 43.6197H35.1986C38.0586 43.6197 40.7986 41.2997 41.2786 38.4797L43.9386 22.5597C44.2586 20.5997 43.2586 17.9797 41.7186 16.7397ZM23.9986 30.9997C21.2386 30.9997 18.9986 28.7597 18.9986 25.9997C18.9986 23.2397 21.2386 20.9997 23.9986 20.9997C26.7586 20.9997 28.9986 23.2397 28.9986 25.9997C28.9986 28.7597 26.7586 30.9997 23.9986 30.9997Z" fill="#2F5F8A"/>
</svg>
