<svg width="48" height="48" viewBox="0 0 48 48" fill="none" xmlns="http://www.w3.org/2000/svg">
<path d="M37.9985 14C37.9985 14.36 37.9785 14.7 37.9385 15.04C37.6985 17.94 36.4185 20.56 34.4785 22.48C32.3185 24.66 29.3185 26 25.9985 26H19.7385C18.7385 26 17.8985 26.74 17.7585 27.72L16.2385 38.28C16.1185 39.06 15.5585 39.7 14.8185 39.9C14.6385 39.98 14.4585 40 14.2585 40H10.3585C9.11846 40 8.17848 38.9 8.37848 37.68L13.1584 9.02002C13.6384 6.12002 16.1385 4 19.0785 4H27.9985C33.5185 4 37.9985 8.48 37.9985 14Z" fill="#2F5F8A"/>
<path d="M41.9975 21.9993C41.9975 24.7593 40.8775 27.2593 39.0775 29.0793C37.2575 30.8793 34.7575 31.9993 31.9975 31.9993H27.6975C26.7175 31.9993 25.8775 32.6993 25.7175 33.6793L24.2776 42.3193C24.1176 43.2993 23.2775 43.9993 22.2975 43.9993H16.4375C16.0775 43.9993 15.7575 43.9193 15.4775 43.7593C15.0375 43.5193 15.3175 42.9393 15.7975 42.7393C17.5975 42.1593 18.9175 40.6193 19.1975 38.6993L20.4775 29.8593C20.5575 29.3593 20.9775 28.9993 21.4575 28.9993H25.9975C30.0175 28.9993 33.7975 27.4393 36.5975 24.6193C38.2575 22.9793 39.4975 20.9593 40.2175 18.7793C40.3775 18.2793 41.0375 18.1793 41.2575 18.6393C41.7375 19.6793 41.9975 20.7993 41.9975 21.9993Z" fill="#2F5F8A"/>
</svg>
